<svg width="179" height="30" viewBox="0 0 179 30" fill="none" xmlns="http://www.w3.org/2000/svg">
<path fill-rule="evenodd" clip-rule="evenodd" d="M7.13549 12.6626C5.73226 11.5618 4.81476 10.3243 4.38975 8.94311C3.96473 7.56196 3.95798 6.26287 4.3695 5.04582C4.78103 3.82877 5.58384 2.79633 6.78468 1.95534C7.98552 1.10751 9.51018 0.683594 11.3519 0.683594H26.6862C28.0895 0.683594 29.2296 1.83911 29.2296 3.26127V3.26811C29.2296 4.69028 28.0895 5.84579 26.6862 5.84579H11.3519C10.8527 5.84579 10.4142 5.91416 10.0364 6.04407C9.65185 6.18082 9.38875 6.36543 9.24707 6.5979C9.09866 6.8372 9.09191 7.11754 9.22684 7.44573C9.35502 7.77392 9.67209 8.12946 10.1713 8.51235L22.2944 17.818C23.6976 18.8846 24.6556 20.1017 25.1683 21.4691C25.681 22.8366 25.7687 24.1152 25.4314 25.3185C25.0941 26.5219 24.3588 27.527 23.2119 28.3475C22.0718 29.1611 20.5606 29.5714 18.6851 29.5714H2.82461C1.42138 29.5714 0.28125 28.4159 0.28125 26.9937V26.9869C0.28125 25.5647 1.42138 24.4092 2.82461 24.4092H18.6851C19.8253 24.4092 20.4594 24.1972 20.5741 23.7665C20.6888 23.3357 20.2638 22.7682 19.2991 22.0503L7.13549 12.6626ZM29.6634 7.42912C30.2503 6.08217 31.0396 4.90614 32.0381 3.91473C33.0365 2.92331 34.2036 2.13702 35.5529 1.55584C36.9021 0.974669 38.3458 0.6875 39.9042 0.6875H50.0507C51.4539 0.6875 52.594 1.84301 52.594 3.26518V3.27202C52.594 4.69418 51.4539 5.84969 50.0507 5.84969H39.8975C39.0474 5.84969 38.2649 6.00695 37.5498 6.32147C36.8347 6.63599 36.1938 7.05307 35.6406 7.57271C35.0874 8.09234 34.6556 8.71454 34.3453 9.42563C34.035 10.1367 33.8865 10.8957 33.8865 11.7025V21.6987C33.8865 22.4439 34.1631 23.0798 34.7231 23.62C35.2763 24.1533 35.9509 24.4268 36.7402 24.4268H50.0507C51.4539 24.4268 52.594 25.5823 52.594 27.0044V27.0113C52.594 28.4334 51.4539 29.589 50.0507 29.589H36.7402C35.6271 29.589 34.5882 29.3838 33.6234 28.9668C32.6587 28.5497 31.8154 27.989 31.1003 27.2779C30.3852 26.5668 29.8185 25.7259 29.407 24.7618C28.9955 23.7977 28.7931 22.779 28.7931 21.7123V11.723C28.7863 10.2119 29.0764 8.78292 29.6634 7.42912ZM58.24 3.86686C57.2551 4.89247 56.4927 6.11635 55.953 7.53852C55.4133 8.96752 55.1435 10.5401 55.1367 12.2563V26.9908C55.1367 28.4129 56.2768 29.5684 57.6801 29.5684H57.6868C59.09 29.5684 60.2302 28.4129 60.2302 26.9908V12.2563C60.2302 10.3555 60.7969 8.8171 61.9235 7.6274C63.0501 6.44454 64.5411 5.84969 66.3828 5.84969H71.1727C72.5759 5.84969 73.716 4.69418 73.716 3.27202V3.26518C73.716 1.84301 72.5759 0.6875 71.1727 0.6875H66.3828C64.7165 0.6875 63.1851 0.960994 61.7953 1.50798C60.4056 2.05497 59.2182 2.84126 58.24 3.86686ZM80.5999 23.3875C81.5983 24.0712 82.7047 24.4131 83.9393 24.4131H94.9223C96.3255 24.4131 97.4656 25.5686 97.4656 26.9908V26.9976C97.4656 28.4198 96.3255 29.5753 94.9223 29.5753H83.9393C82.4484 29.5753 81.0384 29.2813 79.7229 28.6864C78.4073 28.0916 77.247 27.2984 76.2553 26.307C75.2568 25.3156 74.4743 24.1464 73.9076 22.8131C73.3341 21.4799 73.0508 20.0509 73.0508 18.5398V11.8187C73.0508 10.3076 73.3341 8.8718 73.9076 7.52484C74.481 6.17789 75.2636 4.99503 76.2553 3.9831C77.247 2.97801 78.4073 2.1712 79.7229 1.57635C81.0384 0.981505 82.4484 0.6875 83.9393 0.6875H90.6586C92.4126 0.6875 93.8496 1.09774 94.9627 1.91138C96.0759 2.72503 96.8045 3.73695 97.1553 4.94033C97.5061 6.1437 97.4454 7.41545 96.9799 8.76924C96.5144 10.123 95.6036 11.3469 94.2544 12.4409L80.5999 23.3875ZM78.1442 18.7107L91.1443 8.42737C91.4951 8.16072 91.7717 7.87355 91.9809 7.55903C92.1833 7.24451 92.2777 6.96418 92.2642 6.7112C92.2507 6.45822 92.1158 6.2531 91.8662 6.089C91.6166 5.92491 91.2118 5.84286 90.6586 5.84286H83.9393C83.15 5.84286 82.4011 6.00012 81.6995 6.3078C80.9979 6.62231 80.384 7.03939 79.8578 7.57954C79.3316 8.11286 78.9133 8.74189 78.603 9.47349C78.2927 10.1982 78.1442 10.9777 78.1442 11.8119V18.7107ZM110.385 24.4131C109.15 24.4131 108.037 24.0712 107.045 23.3875L120.7 12.4409C122.049 11.3469 122.96 10.1162 123.425 8.76924C123.891 7.41545 123.951 6.1437 123.601 4.94033C123.25 3.73695 122.521 2.72503 121.408 1.91138C120.295 1.09774 118.858 0.6875 117.104 0.6875H110.385C108.894 0.6875 107.484 0.981505 106.168 1.57635C104.853 2.1712 103.699 2.97801 102.701 3.9831C101.709 4.99503 100.926 6.17789 100.353 7.52484C99.7794 8.8718 99.4961 10.3076 99.4961 11.8187V18.5398C99.4961 20.0509 99.7794 21.4799 100.353 22.8131C100.92 24.1464 101.702 25.3156 102.701 26.307C103.692 27.2984 104.853 28.0916 106.168 28.6864C107.484 29.2813 108.894 29.5753 110.385 29.5753H121.368C122.771 29.5753 123.911 28.4198 123.911 26.9976V26.9908C123.911 25.5686 122.771 24.4131 121.368 24.4131H110.385ZM117.59 8.42737L104.59 18.7107V11.8119C104.59 10.9777 104.738 10.1982 105.048 9.47349C105.359 8.74189 105.777 8.11286 106.303 7.57954C106.829 7.03939 107.443 6.62231 108.145 6.3078C108.846 6.00012 109.595 5.84286 110.385 5.84286H117.104C117.657 5.84286 118.062 5.92491 118.312 6.089C118.561 6.2531 118.696 6.45822 118.71 6.7112C118.723 6.96418 118.629 7.24451 118.426 7.55903C118.217 7.87355 117.94 8.16072 117.59 8.42737ZM139.499 0.6875C141.199 0.6875 142.731 0.960994 144.114 1.50798C145.49 2.05497 146.671 2.84126 147.649 3.86686C148.627 4.89247 149.389 6.11635 149.936 7.53852C150.476 8.96069 150.745 10.5333 150.745 12.2563V24.4092H168.291C169.431 24.4092 170.065 24.1972 170.18 23.7665C170.294 23.3357 169.869 22.7682 168.905 22.0503L156.734 12.6626C155.331 11.5618 154.413 10.3243 153.988 8.94311C153.563 7.56196 153.557 6.26287 153.968 5.04582C154.38 3.82877 155.183 2.79633 156.383 1.95534C157.584 1.10751 159.109 0.683594 160.951 0.683594H176.285C177.688 0.683594 178.828 1.83911 178.828 3.26127V3.26811C178.828 4.69028 177.688 5.84579 176.285 5.84579H160.951C160.451 5.84579 160.013 5.91416 159.635 6.04407C159.257 6.18082 158.994 6.36543 158.846 6.5979C158.697 6.8372 158.691 7.11754 158.826 7.44573C158.954 7.77392 159.271 8.12946 159.77 8.51235L171.893 17.818C173.296 18.8846 174.254 20.1017 174.767 21.4691C175.28 22.8366 175.367 24.1152 175.03 25.3185C174.693 26.5219 173.951 27.527 172.811 28.3475C171.671 29.1611 170.159 29.5714 168.291 29.5714H149.887V29.5684H145.652V12.2563C145.652 10.3555 145.085 8.8171 143.959 7.6274C142.832 6.44454 141.348 5.84969 139.499 5.84969H134.359C133.246 5.84969 132.409 6.17789 131.856 6.82743C131.303 7.47698 131.019 8.40002 131.019 9.58972V26.9976C131.019 28.4198 129.879 29.5753 128.476 29.5753H128.469C127.066 29.5753 125.926 28.4198 125.926 26.9976V9.58972C125.926 8.34533 126.121 7.17614 126.519 6.09584C126.917 5.01554 127.477 4.07199 128.213 3.27202C128.941 2.47205 129.832 1.84301 130.871 1.37807C131.91 0.91997 133.077 0.6875 134.365 0.6875H139.499Z" fill="url(#paint0_diamond_107_275)"/>
<defs>
<radialGradient id="paint0_diamond_107_275" cx="0" cy="0" r="1" gradientUnits="userSpaceOnUse" gradientTransform="translate(195.611 29.5889) rotate(-166.4) scale(239.558 5123.14)">
<stop offset="0.0364583" stop-color="#F41B3B"/>
<stop offset="0.369792" stop-color="#AE46B9"/>
<stop offset="0.630208" stop-color="#8F76FC"/>
<stop offset="1" stop-color="#1884F7"/>
</radialGradient>
</defs>
</svg>
