<svg width="52" height="59" viewBox="0 0 52 59" fill="none" xmlns="http://www.w3.org/2000/svg">
<path d="M6.79304 2.02118C7.55563 2.02118 8.29193 2.24105 8.9099 2.66081L8.95592 2.68746L9.00194 2.71411L48.3677 25.7342L48.4071 25.7609L48.4532 25.7809C50.0375 26.5804 50.2676 28.2661 50.2676 29.1989C50.2676 31.1511 48.8739 32.4104 48.0127 33.0034L8.99536 56.0035L8.94934 56.0301L8.9099 56.0568C8.25906 56.4965 7.35183 56.6964 6.79304 56.6964C6.22766 56.6964 5.32701 56.4965 4.67617 56.0568L4.59071 55.9968L4.49867 55.9502C3.26931 55.3305 2.38181 53.7581 2.38181 52.219V6.49194C2.38181 4.50642 3.82154 3.24048 4.67617 2.66081C5.30071 2.24105 6.03044 2.02118 6.79304 2.02118ZM6.79304 0.355469C5.7346 0.355469 4.67617 0.661959 3.76895 1.27494C1.94792 2.5009 0.738281 4.34651 0.738281 6.49194V52.219C0.738281 54.3644 1.94792 56.5165 3.76895 57.436C4.67617 58.049 5.88581 58.3555 6.79961 58.3555C7.71341 58.3555 8.91647 58.049 9.83027 57.436L48.8936 34.4159C50.7081 33.1899 51.9243 31.3443 51.9243 29.1989C51.9243 27.0535 51.0171 25.2079 49.196 24.2884L9.8237 1.27494C8.91647 0.661959 7.85804 0.355469 6.79304 0.355469Z" fill="url(#paint0_linear_107_273)"/>
<defs>
<linearGradient id="paint0_linear_107_273" x1="-13.3346" y1="29.3555" x2="60.9462" y2="29.3554" gradientUnits="userSpaceOnUse">
<stop stop-color="#F41B3B"/>
<stop offset="1" stop-color="#1884F7"/>
</linearGradient>
</defs>
</svg>
