<svg width="14" height="17" viewBox="0 0 14 17" fill="none" xmlns="http://www.w3.org/2000/svg">
<path d="M0.683594 0.488281H5.89903C7.50519 0.488281 8.90982 0.816325 10.1007 1.47241C11.2916 2.1285 12.2137 3.04454 12.8611 4.22674C13.5084 5.40893 13.8321 6.76443 13.8321 8.31181C13.8321 9.85299 13.5084 11.2147 12.8611 12.3969C12.2137 13.5791 11.2977 14.4951 10.1007 15.1512C8.90982 15.8073 7.50519 16.1353 5.89903 16.1353H0.683594V0.488281ZM5.77079 13.3253C7.43802 13.3253 8.70829 12.8797 9.5816 11.9822C10.4549 11.0847 10.8946 9.85918 10.8946 8.30562C10.8946 6.74586 10.4549 5.52034 9.5816 4.62905C8.70218 3.73158 7.43191 3.28593 5.77079 3.28593H3.59667V13.3315H5.77079V13.3253Z" fill="white"/>
</svg>
