<svg width="9" height="12" viewBox="0 0 9 12" fill="none" xmlns="http://www.w3.org/2000/svg">
<path d="M6.36359 5.82334V5.79686C6.93835 5.58945 7.39555 5.25848 7.73082 4.80835C8.07045 4.35823 8.24027 3.81543 8.24027 3.17995C8.24027 2.56655 8.07916 2.02375 7.75695 1.55156C7.43038 1.07937 6.99496 0.717502 6.45068 0.461548C5.90204 0.210008 5.29245 0.0820312 4.63061 0.0820312H0.171875V11.5382H4.63061C5.29245 11.5382 5.90204 11.4102 6.45068 11.1587C6.99496 10.9027 7.43038 10.5408 7.75695 10.0686C8.07916 9.59645 8.24027 9.05365 8.24027 8.44025C8.24027 7.80478 8.07045 7.26198 7.73082 6.81185C7.39555 6.36173 6.93835 6.03075 6.36359 5.82334ZM2.24884 1.99727H4.55223C5.05297 1.99727 5.44485 2.12966 5.72788 2.39444C6.0109 2.65922 6.15024 3.00343 6.15024 3.4315C6.15024 3.85514 6.00655 4.20377 5.71917 4.47296C5.43179 4.74216 5.02249 4.87896 4.49127 4.87896H2.24884V1.99727ZM5.72788 9.22576C5.44485 9.49054 5.05297 9.62293 4.55223 9.62293H2.24884V6.74124H4.49127C5.02249 6.74124 5.43179 6.87805 5.71917 7.14724C6.00655 7.41643 6.15024 7.76506 6.15024 8.18871C6.15024 8.61677 6.0109 8.96098 5.72788 9.22576Z" fill="white"/>
</svg>
