<svg width="12" height="17" viewBox="0 0 12 17" fill="none" xmlns="http://www.w3.org/2000/svg">
<path d="M8.67645 8.10722V8.07008C9.48258 7.77918 10.1238 7.31497 10.5941 6.68364C11.0704 6.05231 11.3086 5.291 11.3086 4.39971C11.3086 3.53937 11.0826 2.77807 10.6307 2.11579C10.1727 1.45351 9.56197 0.945974 8.79859 0.586983C8.0291 0.234182 7.17411 0.0546875 6.24583 0.0546875H-0.0078125V16.1226H6.24583C7.17411 16.1226 8.0291 15.9431 8.79859 15.5903C9.56197 15.2313 10.1727 14.7238 10.6307 14.0615C11.0826 13.3992 11.3086 12.6379 11.3086 11.7776C11.3086 10.8863 11.0704 10.125 10.5941 9.49367C10.1238 8.86234 9.48258 8.39813 8.67645 8.10722ZM2.90526 2.74093H6.13591C6.83822 2.74093 7.38786 2.92661 7.78481 3.29798C8.18178 3.66935 8.3772 4.15213 8.3772 4.75251C8.3772 5.34671 8.17567 5.83568 7.7726 6.21324C7.36953 6.59079 6.79547 6.78267 6.05041 6.78267H2.90526V2.74093ZM7.78481 12.8793C7.38786 13.2507 6.83822 13.4364 6.13591 13.4364H2.90526V9.39464H6.05041C6.79547 9.39464 7.36953 9.58651 7.7726 9.96407C8.17567 10.3416 8.3772 10.8306 8.3772 11.4248C8.3772 12.0252 8.18178 12.508 7.78481 12.8793Z" fill="white"/>
</svg>
