<svg width="10" height="12" viewBox="0 0 10 12" fill="none" xmlns="http://www.w3.org/2000/svg">
<path d="M0.21875 0.394531H3.93726C5.08243 0.394531 6.0839 0.62842 6.93297 1.0962C7.78205 1.56398 8.43954 2.2171 8.90108 3.05998C9.36263 3.90287 9.59341 4.86931 9.59341 5.97256C9.59341 7.0714 9.36263 8.04226 8.90108 8.88514C8.43954 9.72802 7.7864 10.3811 6.93297 10.8489C6.0839 11.3167 5.08243 11.5506 3.93726 11.5506H0.21875V0.394531ZM3.84582 9.54709C5.03453 9.54709 5.94021 9.22935 6.56286 8.58947C7.18552 7.94958 7.49902 7.07581 7.49902 5.96815C7.49902 4.85607 7.18552 3.9823 6.56286 3.34683C5.93585 2.70694 5.03017 2.38921 3.84582 2.38921H2.29572V9.5515H3.84582V9.54709Z" fill="white"/>
</svg>
